<mxfile host="65bd71144e">
    <diagram id="Gw33N38tmy4oHrtjAytS" name="ページ1">
        <mxGraphModel dx="690" dy="935" grid="1" gridSize="10" guides="1" tooltips="1" connect="1" arrows="1" fold="1" page="1" pageScale="1" pageWidth="827" pageHeight="1169" math="0" shadow="0">
            <root>
                <mxCell id="0"/>
                <mxCell id="1" parent="0"/>
                <mxCell id="2" value="" style="whiteSpace=wrap;html=1;aspect=fixed;align=center;opacity=40;strokeWidth=1;" vertex="1" parent="1">
                    <mxGeometry x="310" y="350" width="470" height="470" as="geometry"/>
                </mxCell>
                <mxCell id="3" value="&lt;span style=&quot;&quot;&gt;リバーシアプリケーション&lt;/span&gt;" style="text;html=1;align=center;verticalAlign=middle;resizable=0;points=[];autosize=1;strokeColor=none;fillColor=none;" vertex="1" parent="1">
                    <mxGeometry x="371" y="350" width="170" height="30" as="geometry"/>
                </mxCell>
                <mxCell id="4" value="Actor" style="shape=umlActor;verticalLabelPosition=bottom;verticalAlign=top;html=1;strokeColor=#000000;strokeWidth=1;opacity=40;" vertex="1" parent="1">
                    <mxGeometry x="150" y="460" width="30" height="60" as="geometry"/>
                </mxCell>
                <mxCell id="5" value="会員登録・ログインする" style="ellipse;whiteSpace=wrap;html=1;strokeColor=#000000;strokeWidth=1;opacity=40;" vertex="1" parent="1">
                    <mxGeometry x="344" y="390" width="80" height="40" as="geometry"/>
                </mxCell>
                <mxCell id="6" value="対戦する" style="ellipse;whiteSpace=wrap;html=1;strokeColor=#000000;strokeWidth=1;opacity=40;" vertex="1" parent="1">
                    <mxGeometry x="330" y="470" width="80" height="40" as="geometry"/>
                </mxCell>
                <mxCell id="7" value="自分の過去の対戦結果を確認する" style="ellipse;whiteSpace=wrap;html=1;strokeColor=#000000;strokeWidth=1;opacity=40;" vertex="1" parent="1">
                    <mxGeometry x="324" y="570" width="120" height="60" as="geometry"/>
                </mxCell>
                <mxCell id="8" value="プレイヤーのランキングを確認する" style="ellipse;whiteSpace=wrap;html=1;strokeColor=#000000;strokeWidth=1;opacity=40;" vertex="1" parent="1">
                    <mxGeometry x="354" y="670" width="120" height="60" as="geometry"/>
                </mxCell>
                <mxCell id="9" value="・対戦を開始する&lt;br&gt;・盤面を見る&lt;br&gt;・石を打つ&lt;br&gt;・勝敗を確認する" style="shape=note;whiteSpace=wrap;html=1;backgroundOutline=1;darkOpacity=0.05;strokeColor=#000000;strokeWidth=1;opacity=40;" vertex="1" parent="1">
                    <mxGeometry x="490" y="380" width="140" height="70" as="geometry"/>
                </mxCell>
                <mxCell id="10" value="" style="endArrow=none;dashed=1;html=1;entryX=0;entryY=0.5;entryDx=0;entryDy=0;entryPerimeter=0;exitX=1;exitY=0.5;exitDx=0;exitDy=0;" edge="1" parent="1" source="6" target="9">
                    <mxGeometry width="50" height="50" relative="1" as="geometry">
                        <mxPoint x="430" y="460" as="sourcePoint"/>
                        <mxPoint x="480" y="410" as="targetPoint"/>
                    </mxGeometry>
                </mxCell>
                <mxCell id="11" value="他のプレイヤーと対戦する" style="ellipse;whiteSpace=wrap;html=1;strokeColor=#000000;strokeWidth=1;opacity=40;" vertex="1" parent="1">
                    <mxGeometry x="620" y="730" width="120" height="60" as="geometry"/>
                </mxCell>
                <mxCell id="12" value="コンピュータと対戦する" style="ellipse;whiteSpace=wrap;html=1;strokeColor=#000000;strokeWidth=1;opacity=40;" vertex="1" parent="1">
                    <mxGeometry x="620" y="661" width="120" height="60" as="geometry"/>
                </mxCell>
                <mxCell id="13" value="一人で黒白交互に打つ" style="ellipse;whiteSpace=wrap;html=1;strokeColor=#000000;strokeWidth=1;opacity=40;" vertex="1" parent="1">
                    <mxGeometry x="610" y="490" width="120" height="60" as="geometry"/>
                </mxCell>
                <mxCell id="16" value="Extends" style="endArrow=block;endSize=16;endFill=0;html=1;exitX=0;exitY=0.5;exitDx=0;exitDy=0;" edge="1" parent="1" source="13" target="6">
                    <mxGeometry width="160" relative="1" as="geometry">
                        <mxPoint x="490" y="490" as="sourcePoint"/>
                        <mxPoint x="650" y="490" as="targetPoint"/>
                    </mxGeometry>
                </mxCell>
                <mxCell id="17" value="Extends" style="endArrow=block;endSize=16;endFill=0;html=1;entryX=1;entryY=1;entryDx=0;entryDy=0;exitX=0;exitY=0.5;exitDx=0;exitDy=0;" edge="1" parent="1" source="12" target="6">
                    <mxGeometry width="160" relative="1" as="geometry">
                        <mxPoint x="490" y="570" as="sourcePoint"/>
                        <mxPoint x="650" y="570" as="targetPoint"/>
                    </mxGeometry>
                </mxCell>
                <mxCell id="18" value="Extends" style="endArrow=block;endSize=16;endFill=0;html=1;exitX=0;exitY=0.5;exitDx=0;exitDy=0;" edge="1" parent="1" source="11" target="6">
                    <mxGeometry width="160" relative="1" as="geometry">
                        <mxPoint x="492" y="650" as="sourcePoint"/>
                        <mxPoint x="402" y="480" as="targetPoint"/>
                    </mxGeometry>
                </mxCell>
                <mxCell id="20" value="" style="endArrow=none;html=1;entryX=0;entryY=0.5;entryDx=0;entryDy=0;" edge="1" parent="1" target="5">
                    <mxGeometry width="50" height="50" relative="1" as="geometry">
                        <mxPoint x="180" y="480" as="sourcePoint"/>
                        <mxPoint x="230" y="430" as="targetPoint"/>
                    </mxGeometry>
                </mxCell>
                <mxCell id="21" value="" style="endArrow=none;html=1;entryX=0;entryY=0.5;entryDx=0;entryDy=0;" edge="1" parent="1" source="4" target="6">
                    <mxGeometry width="50" height="50" relative="1" as="geometry">
                        <mxPoint x="190" y="490" as="sourcePoint"/>
                        <mxPoint x="354" y="420" as="targetPoint"/>
                    </mxGeometry>
                </mxCell>
                <mxCell id="22" value="" style="endArrow=none;html=1;entryX=0;entryY=0.5;entryDx=0;entryDy=0;" edge="1" parent="1" source="4" target="7">
                    <mxGeometry width="50" height="50" relative="1" as="geometry">
                        <mxPoint x="190" y="497.4860335195531" as="sourcePoint"/>
                        <mxPoint x="354" y="470" as="targetPoint"/>
                    </mxGeometry>
                </mxCell>
                <mxCell id="23" value="" style="endArrow=none;html=1;entryX=0;entryY=0.5;entryDx=0;entryDy=0;exitX=1;exitY=1;exitDx=0;exitDy=0;exitPerimeter=0;" edge="1" parent="1" source="4" target="8">
                    <mxGeometry width="50" height="50" relative="1" as="geometry">
                        <mxPoint x="180" y="569.9970588235293" as="sourcePoint"/>
                        <mxPoint x="318" y="640.35" as="targetPoint"/>
                    </mxGeometry>
                </mxCell>
                <mxCell id="25" value="" style="rounded=0;whiteSpace=wrap;html=1;strokeColor=#FF0000;strokeWidth=7;opacity=40;fillColor=none;" vertex="1" parent="1">
                    <mxGeometry x="310" y="463" width="455.29" height="180" as="geometry"/>
                </mxCell>
            </root>
        </mxGraphModel>
    </diagram>
</mxfile>
